<svg preserveAspectRatio="none" width="1440" height="811" viewBox="0 0 1440 811" fill="none" xmlns="http://www.w3.org/2000/svg">
<mask id="mask0_1199_5633" style="mask-type:alpha" maskUnits="userSpaceOnUse" x="0" y="0" width="1440" height="811">
<rect vector-effect="non-scaling-stroke" width="1440" height="811" fill="#D9D9D9"/>
</mask>
<g mask="url(#mask0_1199_5633)">
<path vector-effect="non-scaling-stroke" d="M-119 952C-119 505.754 242.754 144 689 144H751C1197.25 144 1559 505.754 1559 952H-119Z" fill="url(#paint0_linear_1199_5633)"/>
<path vector-effect="non-scaling-stroke" opacity="0.2" d="M-497.5 1040C-497.5 487.991 -50.0086 40.5 502 40.5H938C1490.01 40.5 1937.5 487.991 1937.5 1040V1055.5H-497.5V1040Z" stroke="url(#paint1_linear_1199_5633)"/>
<path vector-effect="non-scaling-stroke" opacity="0.5" d="M-407.5 1036.5C-407.23 499.633 28.0698 64.5 565 64.5H875C1411.93 64.5 1847.23 499.633 1847.5 1036.5H-407.5Z" stroke="url(#paint2_linear_1199_5633)"/>
<path vector-effect="non-scaling-stroke" d="M-173.5 977.5C-173.23 503.041 211.478 118.5 686 118.5H754C1228.52 118.5 1613.23 503.041 1613.5 977.5H-173.5Z" stroke="url(#paint3_linear_1199_5633)"/>
<path vector-effect="non-scaling-stroke" opacity="0.8" d="M-319.5 1006.5C-319.23 500.009 91.4454 89.5 598 89.5H842C1348.55 89.5 1759.23 500.009 1759.5 1006.5H-319.5Z" stroke="url(#paint4_linear_1199_5633)"/>
</g>
<defs>
<linearGradient vector-effect="non-scaling-stroke" id="paint0_linear_1199_5633" x1="720" y1="144" x2="720" y2="952" gradientUnits="userSpaceOnUse">
<stop stop-color="#B5E923" stop-opacity="0.88"/>
<stop offset="1" stop-color="#00CA81"/>
</linearGradient>
<linearGradient vector-effect="non-scaling-stroke" id="paint1_linear_1199_5633" x1="720" y1="40" x2="720" y2="1056" gradientUnits="userSpaceOnUse">
<stop stop-color="#B5E923"/>
<stop offset="1" stop-color="#D9D9D9" stop-opacity="0"/>
</linearGradient>
<linearGradient vector-effect="non-scaling-stroke" id="paint2_linear_1199_5633" x1="720" y1="64" x2="720" y2="1037" gradientUnits="userSpaceOnUse">
<stop stop-color="#B5E923"/>
<stop offset="1" stop-color="#D9D9D9" stop-opacity="0"/>
</linearGradient>
<linearGradient vector-effect="non-scaling-stroke" id="paint3_linear_1199_5633" x1="720" y1="118" x2="720" y2="978" gradientUnits="userSpaceOnUse">
<stop stop-color="#B5E923"/>
<stop offset="1" stop-color="#D9D9D9" stop-opacity="0"/>
</linearGradient>
<linearGradient vector-effect="non-scaling-stroke" id="paint4_linear_1199_5633" x1="720" y1="89" x2="720" y2="1007" gradientUnits="userSpaceOnUse">
<stop stop-color="#B5E923"/>
<stop offset="1" stop-color="#D9D9D9" stop-opacity="0"/>
</linearGradient>
</defs>
</svg>
