<svg preserveAspectRatio="none" width="57" height="56" viewBox="0 0 57 56" fill="none" xmlns="http://www.w3.org/2000/svg">
<path vector-effect="non-scaling-stroke" d="M22.7733 9.72586C28.0816 9.72843 31.0901 13.1924 30.0373 18.4647C28.9845 23.737 24.4728 27.1979 19.2851 27.1953L13.0115 27.1927L11.0002 37.2652L5.69189 37.2626L11.1914 9.7207L22.7733 9.72586ZM13.9546 22.4713L19.7056 22.4739C22.2394 22.4749 24.2425 20.9022 24.7295 18.4626C25.2164 16.0231 23.8416 14.4488 21.3082 14.4472L15.5572 14.4447L13.9546 22.4713Z" fill="black"/>
<path vector-effect="non-scaling-stroke" d="M53.7389 9.74067L52.8278 14.3049L43.785 20.5181L43.6907 20.9902H44.7362C48.6372 20.9922 51.6096 23.6302 50.612 28.6272C49.4963 34.2144 44.4301 37.8325 38.1566 37.8294C31.4404 37.8263 28.1568 33.9294 29.2487 28.4603L29.4688 27.3585L34.7771 27.3611L34.5885 28.3052C34.0541 30.9807 35.5048 33.1848 39.0837 33.1868C42.4214 33.1884 44.777 31.2611 45.3036 28.6252C45.8298 25.9888 44.1993 24.6897 41.5047 24.6886L36.5983 24.6866L37.5253 20.0435L45.5984 14.4595L32.8503 14.4538L33.7929 9.73242L53.74 9.74118L53.7389 9.74067Z" fill="black"/>
<path vector-effect="non-scaling-stroke" d="M9.33674 40.6084L10.1932 46.4666H8.93788L8.757 45.1108H6.02888L5.24507 46.4666H3.98975L7.41716 40.6084H9.33622H9.33674ZM8.65033 44.2234L8.25301 41.4365H8.1283L6.52359 44.2234H8.65033Z" fill="black"/>
<path vector-effect="non-scaling-stroke" d="M14.6161 40.6084C16.5146 40.6084 17.4164 41.37 17.0742 42.9351L16.8109 44.1399C16.4708 45.6967 15.234 46.4666 13.3355 46.4666H10.9702L12.2508 40.6084H14.6161ZM12.3678 45.5792H13.5293C14.7532 45.5792 15.3953 45.1108 15.6055 44.1481L15.8725 42.9263C16.0827 41.9642 15.6457 41.4953 14.4218 41.4953H13.2603L12.3678 45.5792Z" fill="black"/>
<path vector-effect="non-scaling-stroke" d="M22.0018 40.6084L22.8582 46.4666H21.6029L21.422 45.1108H18.6939L17.9101 46.4666H16.6548L20.0822 40.6084H22.0013H22.0018ZM21.3154 44.2234L20.9181 41.4365H20.7933L19.1886 44.2234H21.3154Z" fill="black"/>
<path vector-effect="non-scaling-stroke" d="M27.8214 40.6084C29.17 40.6084 29.9481 41.3195 29.7085 42.4162C29.4704 43.504 28.3486 44.2239 27.0314 44.2239H25.3303L24.8402 46.4666H23.637L24.9175 40.6084H27.8219H27.8214ZM25.5241 43.3365H27.101C27.8477 43.3365 28.3795 42.9933 28.5052 42.4162C28.631 41.839 28.2604 41.4958 27.5029 41.4958H25.926L25.5236 43.337L25.5241 43.3365Z" fill="black"/>
<path vector-effect="non-scaling-stroke" d="M36.1921 40.6084L35.9983 41.4953H33.7268L32.6405 46.4661H31.4372L32.5235 41.4953H30.252L30.4457 40.6084H36.1926H36.1921Z" fill="black"/>
<path vector-effect="non-scaling-stroke" d="M38.2148 40.6084L36.9342 46.4666H35.731L37.0115 40.6084H38.2148Z" fill="black"/>
<path vector-effect="non-scaling-stroke" d="M40.2375 40.6084L40.8899 45.5962H41.0146L43.8474 40.6084H45.113L41.7062 46.4666H39.8186L38.9724 40.6084H40.238H40.2375Z" fill="black"/>
<path vector-effect="non-scaling-stroke" d="M50.5794 40.6085L50.3857 41.4953H46.8794L46.5336 43.0769H49.7493L49.5555 43.9637H46.3399L45.9869 45.5787H49.5447L49.3509 46.4656H44.5898L45.8704 40.6074H50.58L50.5794 40.6085Z" fill="black"/>
</svg>
