<svg preserveAspectRatio="none" width="350" height="350" viewBox="0 0 350 350" fill="none" xmlns="http://www.w3.org/2000/svg">
<g opacity="0.5">
<path vector-effect="non-scaling-stroke" d="M137.508 59.4968C170.891 59.513 189.81 81.2972 183.189 114.453C176.568 147.609 148.196 169.374 115.571 169.358L76.1184 169.342L63.4698 232.685L30.0869 232.669L64.6721 59.4644L137.508 59.4968ZM82.0489 139.65L118.216 139.666C134.15 139.673 146.747 129.782 149.81 114.44C152.872 99.0986 144.226 89.1981 128.294 89.1884L92.1277 89.1722L82.0489 139.65Z" fill="black"/>
<path vector-effect="non-scaling-stroke" d="M332.244 59.5843L326.514 88.2876L269.646 127.361L269.053 130.33H275.628C300.161 130.343 318.853 146.932 312.579 178.357C305.563 213.494 273.703 236.247 234.251 236.227C192.014 236.208 171.364 211.701 178.231 177.307L179.615 170.379L212.998 170.395L211.812 176.332C208.451 193.158 217.574 207.019 240.081 207.032C261.071 207.041 275.884 194.921 279.196 178.344C282.505 161.765 272.252 153.595 255.306 153.588L224.451 153.576L230.281 124.376L281.05 89.2598L200.881 89.2241L206.808 59.5325L332.251 59.5876L332.244 59.5843Z" fill="black"/>
<path vector-effect="non-scaling-stroke" d="M53.0087 253.708L58.3949 290.549H50.5004L49.3629 282.022H32.2064L27.2773 290.549H19.3828L40.937 253.708H53.0055H53.0087ZM48.6921 276.442L46.1935 258.916H45.4092L35.3175 276.442H48.6921Z" fill="black"/>
<path vector-effect="non-scaling-stroke" d="M86.21 253.708C98.1489 253.708 103.82 258.498 101.668 268.34L100.012 275.917C97.8734 285.707 90.0956 290.549 78.1567 290.549H63.2817L71.335 253.708H86.21ZM72.0706 284.968H79.3753C87.072 284.968 91.11 282.022 92.4322 275.968L94.1109 268.285C95.4331 262.234 92.685 259.285 84.9882 259.285H77.6836L72.0706 284.968Z" fill="black"/>
<path vector-effect="non-scaling-stroke" d="M132.657 253.708L138.043 290.549H130.148L129.011 282.022H111.854L106.925 290.549H99.0308L120.585 253.708H132.653H132.657ZM128.34 276.442L125.841 258.916H125.057L114.965 276.442H128.34Z" fill="black"/>
<path vector-effect="non-scaling-stroke" d="M169.254 253.708C177.735 253.708 182.629 258.18 181.122 265.076C179.625 271.917 172.57 276.445 164.286 276.445H153.589L150.507 290.549H142.939L150.993 253.708H169.258H169.254ZM154.807 270.864H164.724C169.42 270.864 172.764 268.706 173.555 265.076C174.345 261.447 172.015 259.288 167.251 259.288H157.335L154.804 270.867L154.807 270.864Z" fill="black"/>
<path vector-effect="non-scaling-stroke" d="M221.897 253.708L220.678 259.285H206.393L199.561 290.545H191.994L198.826 259.285H184.541L185.759 253.708H221.9H221.897Z" fill="black"/>
<path vector-effect="non-scaling-stroke" d="M234.616 253.708L226.563 290.549H218.996L227.049 253.708H234.616Z" fill="black"/>
<path vector-effect="non-scaling-stroke" d="M247.336 253.708L251.439 285.075H252.223L270.038 253.708H277.997L256.573 290.549H244.702L239.38 253.708H247.34H247.336Z" fill="black"/>
<path vector-effect="non-scaling-stroke" d="M312.375 253.708L311.157 259.285H289.107L286.932 269.231H307.154L305.936 274.808H285.714L283.494 284.965H305.868L304.649 290.542H274.708L282.761 253.701H312.378L312.375 253.708Z" fill="black"/>
</g>
</svg>
